<svg xmlns="http://www.w3.org/2000/svg" viewBox="10 8 44 48" fill="none">
  <g fill="none" stroke="#000000" stroke-linecap="round" stroke-linejoin="round">
    <path
      vector-effect="non-scaling-stroke"
      stroke-width="4.1"
      d="M18.4 13.2C23.7 11.7 40.3 11.7 45.6 13.2C47.5 13.8 48 16 46.3 17.3C41.7 20.8 36.2 26 32 32C36.2 38 41.7 43.2 46.3 46.7C48 48 47.5 50.2 45.6 50.8C40.3 52.3 23.7 52.3 18.4 50.8C16.5 50.2 16 48 17.7 46.7C22.3 43.2 27.8 38 32 32C27.8 26 22.3 20.8 17.7 17.3C16 16 16.5 13.8 18.4 13.2Z"
    />
  </g>
</svg>
